<?xml version="1.0" standalone="no"?>
<!DOCTYPE svg PUBLIC "-//W3C//DTD SVG 20010904//EN"
 "http://www.w3.org/TR/2001/REC-SVG-20010904/DTD/svg10.dtd">
<svg version="1.0" xmlns="http://www.w3.org/2000/svg"
 width="362.000000pt" height="361.000000pt" viewBox="20 10 325 340"
 preserveAspectRatio="xMidYMid meet">
<metadata>
Created by potrace 1.15, written by Peter Selinger 2001-2017
</metadata>
<g transform="translate(0.000000,361.000000) scale(0.100000,-0.100000)"
fill="#000000" stroke="none">
<path d="M1650 3507 c-3 -3 -27 -7 -55 -10 -231 -25 -531 -144 -745 -295 -52
-37 -154 -125 -226 -197 -103 -103 -148 -158 -218 -262 -84 -127 -166 -284
-166 -316 0 -9 -4 -18 -9 -21 -4 -3 -14 -27 -21 -53 -7 -27 -18 -61 -25 -78
-13 -29 -35 -131 -54 -250 -6 -33 -9 -148 -7 -255 3 -155 8 -217 26 -299 75
-351 244 -652 510 -904 125 -119 256 -211 405 -286 275 -138 511 -189 834
-178 254 8 438 55 676 173 472 234 815 677 925 1195 28 132 38 376 21 527 -46
400 -226 755 -531 1045 -181 172 -397 302 -632 381 -108 37 -162 49 -323 76
-52 8 -377 14 -385 7z m247 -281 c99 -89 204 -354 258 -646 9 -47 18 -93 21
-102 5 -17 -16 -18 -351 -18 -335 0 -356 1 -351 18 3 9 10 46 16 82 19 113 77
322 118 422 73 181 148 278 217 278 26 0 45 -9 72 -34z m-483 -63 c-96 -222
-160 -441 -190 -655 l-6 -48 -344 0 c-248 0 -344 3 -344 11 0 17 85 154 146
234 106 142 285 292 458 386 78 42 247 108 279 109 16 0 16 -2 1 -37z m902 13
c260 -88 513 -273 673 -490 51 -69 131 -200 131 -215 0 -8 -96 -11 -344 -11
l-344 0 -6 48 c-30 214 -94 433 -190 655 -20 45 -16 46 80 13z m-1133 -1003
c-10 -36 -10 -700 0 -735 l7 -28 -384 0 -384 0 -11 48 c-32 143 -35 179 -35
347 0 168 3 204 35 348 l11 47 384 0 384 0 -7 -27z m1031 -65 c8 -118 8 -488
0 -606 l-7 -92 -382 0 -382 0 -7 92 c-3 50 -6 186 -6 303 0 117 3 253 6 303
l7 92 382 0 382 0 7 -92z m1025 45 c32 -144 35 -180 35 -348 0 -168 -3 -204
-35 -347 l-11 -48 -384 0 -384 0 7 28 c10 35 10 699 0 735 l-7 27 384 0 384 0
11 -47z m-2015 -1050 c26 -183 93 -427 160 -585 24 -56 40 -104 35 -106 -13
-5 -132 36 -214 73 -202 92 -414 263 -544 439 -51 69 -131 200 -131 215 0 8
96 11 344 11 l344 0 6 -47z m952 30 c-3 -10 -12 -56 -21 -103 -70 -380 -216
-680 -330 -680 -114 0 -260 300 -330 680 -9 47 -18 93 -21 103 -5 16 16 17
351 17 335 0 356 -1 351 -17z m944 6 c0 -15 -80 -146 -131 -215 -130 -176
-342 -347 -544 -439 -82 -37 -201 -78 -214 -73 -5 2 11 50 35 106 67 158 134
402 160 585 l6 47 344 0 c248 0 344 -3 344 -11z"/>
</g>
</svg>
